<svg width="36" height="36" viewBox="0 0 36 36" fill="none" xmlns="http://www.w3.org/2000/svg">
<circle cx="17.9297" cy="17.9297" r="17.9297" fill="#1E9ADF"/>
<path d="M8.44886 26V12.9091H12.0795V26H8.44886ZM10.2727 11.2216C9.73295 11.2216 9.26989 11.0426 8.88352 10.6847C8.50284 10.321 8.3125 9.88636 8.3125 9.38068C8.3125 8.88068 8.50284 8.4517 8.88352 8.09375C9.26989 7.73011 9.73295 7.54829 10.2727 7.54829C10.8125 7.54829 11.2727 7.73011 11.6534 8.09375C12.0398 8.4517 12.233 8.88068 12.233 9.38068C12.233 9.88636 12.0398 10.321 11.6534 10.6847C11.2727 11.0426 10.8125 11.2216 10.2727 11.2216ZM18.6186 18.4318V26H14.9879V12.9091H18.4482V15.2188H18.6016C18.8913 14.4574 19.3771 13.8551 20.0589 13.4119C20.7408 12.9631 21.5675 12.7386 22.5391 12.7386C23.4482 12.7386 24.2408 12.9375 24.9169 13.3352C25.593 13.733 26.1186 14.3011 26.4936 15.0398C26.8686 15.7727 27.0561 16.6477 27.0561 17.6648V26H23.4254V18.3125C23.4311 17.5114 23.2266 16.8864 22.8118 16.4375C22.397 15.983 21.826 15.7557 21.0987 15.7557C20.6101 15.7557 20.1783 15.8608 19.8033 16.071C19.4339 16.2812 19.1442 16.5881 18.9339 16.9915C18.7294 17.3892 18.6243 17.8693 18.6186 18.4318Z" fill="white"/>
</svg>
